<svg xmlns="http://www.w3.org/2000/svg" viewBox="0 0 480 520" fill="none">
<ellipse cx="240" cy="480" rx="150" ry="24" fill="#000" opacity=".08"/>
<path d="M150 320 L240 480 L330 320 Z" fill="#e8d5b5"/>
<path d="M168 322 L240 462 L312 322 Z" fill="#f3e6cd"/>
<path d="M150 320 Q240 300 330 320" stroke="#cd7104" stroke-width="6" fill="none"/>
<g stroke="#22a06c" stroke-width="6" stroke-linecap="round">
<path d="M240 330 L240 200"/><path d="M205 330 L185 210"/><path d="M275 330 L300 210"/><path d="M220 330 L210 230"/><path d="M262 330 L272 230"/>
</g>
<circle cx="185" cy="195" r="42" fill="#f2739f"/><circle cx="185" cy="195" r="42" fill="#d02a63" opacity=".3"/><circle cx="185" cy="195" r="14" fill="#911b44"/>
<circle cx="300" cy="190" r="38" fill="#e64a80"/><circle cx="300" cy="190" r="38" fill="#af1d4f" opacity=".25"/><circle cx="300" cy="190" r="13" fill="#7a1a3d"/>
<circle cx="240" cy="140" r="54" fill="#f8a8c5"/><circle cx="240" cy="140" r="54" fill="#e64a80" opacity=".2"/><circle cx="240" cy="140" r="18" fill="#911b44"/>
<g fill="#f5b521"><circle cx="210" cy="235" r="14"/><circle cx="270" cy="235" r="12"/><circle cx="240" cy="255" r="11"/></g>
<path d="M150 210c-14-18-8-40 10-48" stroke="#22a06c" stroke-width="6" fill="none" stroke-linecap="round"/>
<path d="M330 205c14-18 8-40-10-48" stroke="#22a06c" stroke-width="6" fill="none" stroke-linecap="round"/>
<circle cx="60" cy="80" r="6" fill="#f5b521" opacity=".7"/><circle cx="420" cy="120" r="8" fill="#e64a80" opacity=".6"/><circle cx="80" cy="420" r="7" fill="#22a06c" opacity=".5"/><circle cx="410" cy="400" r="5" fill="#ec9509" opacity=".6"/>
</svg>
