<svg xmlns="http://www.w3.org/2000/svg" viewBox="0 0 64 64" fill="none">
<defs><linearGradient id="lg1" x1="0" y1="0" x2="64" y2="64" gradientUnits="userSpaceOnUse"><stop stop-color="#e64a80"/><stop offset="1" stop-color="#ec9509"/></linearGradient></defs>
<circle cx="32" cy="32" r="32" fill="url(#lg1)"/>
<path d="M32 18c2 4 2 8 0 12-2-4-2-8 0-12z" fill="#fff"/>
<path d="M32 30c4-3.2 8-3.6 11.4-1.4-2.6 3.4-6.4 5-11.4 5.4 0 0 0-2.6 0-4z" fill="#fff" opacity=".92"/>
<path d="M32 30c-4-3.2-8-3.6-11.4-1.4 2.6 3.4 6.4 5 11.4 5.4 0 0 0-2.6 0-4z" fill="#fff" opacity=".92"/>
<path d="M32 30c1.2 4.6.4 8.6-2.4 12 4.6-.6 7.8-3.6 8.6-8.2-1.8-1.8-3.9-3-6.2-3.8z" fill="#fff" opacity=".85"/>
<circle cx="32" cy="30" r="3.2" fill="#fff"/>
</svg>
