<svg xmlns="http://www.w3.org/2000/svg" width="200" height="200" viewBox="0 0 200 200">
<g fill="currentColor" opacity=".08">
<path d="M20 30c8-10 22-10 28 0-8 10-22 10-28 0z"/>
<path d="M120 15c8-10 22-10 28 0-8 10-22 10-28 0z" transform="rotate(35 134 15)"/>
<path d="M60 110c8-10 22-10 28 0-8 10-22 10-28 0z" transform="rotate(70 74 110)"/>
<path d="M160 130c8-10 22-10 28 0-8 10-22 10-28 0z" transform="rotate(15 174 130)"/>
<path d="M30 170c8-10 22-10 28 0-8 10-22 10-28 0z" transform="rotate(100 44 170)"/>
</g>
</svg>
